# xmcd CD database file
#
# Track frame offsets:
#	150
#	21838
#	36515
#	52074
#	67859
#	76780
#	87174
#	99794
#	116742
#	132400
#	148824
#	169865
#	184281
#	198839
#	210166
#	228277
#
# Disc length: 3185 seconds
#
# Revision: 0
# Processed by: cddbd v1.4PL0 Copyright (c) Steve Scherf et al.
# Submitted via: CDex 1.40Beta8
#
DISCID=d50c6f10
DTITLE=Jonny Hill - Das Beste von
DYEAR=1980
DGENRE=Country
TTITLE0=Ruf Teddybär eins-vier
TTITLE1=Nur noch einmal nach Haus (Detroit City)
TTITLE2=Lucille
TTITLE3=Ich möcht so gern Dave Dudley hör'n
TTITLE4=Ein Ring aus Feuer (Ring of Fire)
TTITLE5=König der Landstraße (King of the road)
TTITLE6=Kann Liebe alles verzeih'n (Some broken hearts never mend)
TTITLE7=Rosen für Mama
TTITLE8=Pack doch deinen Koffer wieder aus
TTITLE9=Dann gehst du alleine nach Hause
TTITLE10=Papillon
TTITLE11=Wenn der Briefträger klingelt
TTITLE12=Wie heißt deine Mama
TTITLE13=Ich fahr meine Tour (Six days on the road)
TTITLE14=Mach's gut mein treuer Freund
TTITLE15=Adios Amigo
EXTD=YEAR: 1980 ID3G: 2
EXTT0=
EXTT1=
EXTT2=
EXTT3=
EXTT4=
EXTT5=
EXTT6=
EXTT7=
EXTT8=
EXTT9=
EXTT10=
EXTT11=
EXTT12=
EXTT13=
EXTT14=
EXTT15=
PLAYORDER=
